<svg width="684" height="722" xmlns="http://www.w3.org/2000/svg" xmlns:xlink="http://www.w3.org/1999/xlink" overflow="hidden"><g transform="translate(-298 1)"><rect x="299" y="0" width="682" height="720" fill="#EA8B00"/><path d="M434.848 201.954C458.864 210.588 458.849 235.277 454.996 241.986 448.932 244.308 444.364 247.588 441.919 250.803 443.996 252.139 444.732 252.615 446.265 255.071 449.056 253.009 451.634 253.437 453.293 255.275 451.219 256.737 450.476 256.674 448.708 258.657 448.591 261.543 449.426 264.636 446.299 266.496 446.662 269.451 447.244 270.307 448.578 271.581 445.627 271.933 444.197 271.983 442.515 268.717 439.271 270.067 438.739 268.901 436.31 269.38 438.859 277.371 441.281 278.214 443.544 284.534 436.058 303.821 420.438 310.557 405.194 304.377 413.261 299.814 416.257 295.83 413.872 287.607 425 285.512 424.917 280.882 419.388 274.185 429.017 270.788 427.235 265.885 412.598 250.691 427.184 247.342 437.159 247.229 431.484 236.085 440.862 233.564 440.45 227.198 433.772 221.662 442.06 216.065 439.775 210.207 434.848 201.954Z" stroke="#000000" stroke-width="1.33333" stroke-miterlimit="8" fill-rule="evenodd"/><path d="M29.8814 100.875C0.727946 95.2157-2.42235 71.9088 1.21667 65.1761 7.99974 62.3551 12.9124 58.7852 15.3553 55.4971 12.7588 54.4506 11.8385 54.0778 9.73288 51.9183 6.73777 54.1551 3.67238 54.0182 1.49977 52.4551 3.73389 50.8596 4.60967 50.842 6.41965 48.7868 6.18557 46.0505 4.81403 43.2173 8.22726 41.1371 7.42429 38.386 6.63437 37.6377 4.91364 36.5742 8.31375 35.9357 9.97716 35.7403 12.3613 38.6481 15.976 37.0376 16.7472 38.0829 19.5215 37.3794 15.5194 30.0998 12.5829 29.5555 9.13008 23.8247 15.3968 4.84203 32.773-3.13716 51.3669 1.11535 42.5319 6.25989 39.5449 10.3308 43.3851 17.8463 30.6593 20.9777 31.3498 25.3394 38.6665 31.0879 27.8571 35.293 30.568 39.7367 49.6101 52.5607 33.0064 57.2355 21.3724 58.3763 29.4296 68.3075 18.8015 71.6599 20.0996 77.6261 28.6081 82.1592 19.648 88.3029 23.068 93.595 29.8814 100.875Z" stroke="#000000" stroke-width="1.33333" stroke-miterlimit="8" fill-rule="evenodd" transform="matrix(0.92666 0.3759 0.3759 -0.92666 566.56 184.772)"/><path d="M430.546 450.518C454.591 441.965 470.235 461.065 471.509 468.696 468.293 474.337 466.841 479.77 466.989 483.806 469.442 483.523 470.313 483.424 473.056 484.351 473.906 480.986 476.171 479.682 478.619 480.052 477.943 482.498 477.329 482.92 477.219 485.574 478.959 487.88 481.566 489.743 480.327 493.164 482.481 495.218 483.474 495.511 485.313 495.65 483.255 497.793 482.181 498.739 478.809 497.281 477.157 500.381 476.006 499.817 474.431 501.727 481.47 506.29 483.877 505.406 489.634 508.858 496.076 528.519 488.269 543.633 472.563 548.52 475.907 539.876 475.698 534.896 468.639 530.049 475.915 521.373 472.916 517.846 464.393 516.174 469.686 507.441 465.198 504.78 444.245 502.313 453.401 490.473 461.042 484.061 449.587 479.042 455.241 471.146 450.885 466.485 442.211 466.439 445.071 456.855 439.59 453.775 430.546 450.518Z" stroke="#000000" stroke-width="1.33333" stroke-miterlimit="8" fill-rule="evenodd"/><path d="M736.316 321.677C733.838 342.075 710.03 348.402 702.623 347.207 698.908 343.213 694.633 340.597 690.939 339.571 690.155 341.487 689.876 342.166 687.881 343.957 690.549 345.541 690.764 347.602 689.395 349.33 687.481 348.135 687.36 347.556 685.018 346.727 682.207 347.38 679.428 348.806 676.873 346.916 674.113 347.949 673.429 348.61 672.526 349.946 671.468 347.803 671.072 346.733 673.81 344.621 671.719 342.512 672.714 341.81 671.661 340.094 664.576 344.076 664.353 346.125 658.811 349.461 638.392 348.745 628.094 338.649 630.341 325.523 636.705 330.458 641.275 331.703 648.624 327.787 653.353 335.673 657.797 334.422 662.908 328.517 668.527 334.935 672.821 332.326 683.907 317.345 690.688 327.528 693.225 335.05 702.589 327.893 707.302 334.346 713.34 332.399 717.052 325.923 724.467 330.76 729.558 327.527 736.316 321.677Z" stroke="#000000" stroke-width="1.33333" stroke-miterlimit="8" fill-rule="evenodd"/><path d="M780.5 97.5142C786.446 73.1095 810.938 70.4723 818.012 73.5186 820.977 79.1968 824.728 83.3093 828.183 85.3543 829.283 83.1807 829.675 82.4103 831.944 80.6476 829.593 78.1404 829.737 75.5743 831.38 73.7556 833.056 75.6258 833.075 76.3589 835.234 77.8741 838.11 77.6781 841.087 76.53 843.273 79.3873 846.164 78.7151 846.95 78.0538 848.068 76.6134 848.738 79.4597 848.944 80.8521 845.888 82.848 847.581 85.8738 846.482 86.5194 847.221 88.8418 854.871 85.4916 855.443 83.0335 861.465 80.143 881.412 85.389 889.797 99.9349 885.328 115.5 879.922 108.104 875.644 105.604 867.747 108.818 864.456 98.1654 859.873 98.7434 853.833 104.868 849.414 95.8197 844.744 98.089 831.269 114.029 826.356 100.13 825.158 90.3913 814.722 97.136 811.199 88.2391 804.93 89.3258 800.166 96.4484 793.711 88.9477 788.15 91.8107 780.5 97.5142Z" stroke="#000000" stroke-width="1.33333" stroke-miterlimit="8" fill-rule="evenodd"/><path d="M832.646 543.203C812.263 527.844 819.588 504.267 825.255 499 831.735 498.578 837.069 496.797 840.356 494.451 838.768 492.559 838.206 491.886 837.469 489.086 834.192 490.23 831.857 489.058 830.817 486.811 833.23 486.028 833.922 486.308 836.197 484.938 837.163 482.216 837.282 479.014 840.82 478.164 841.348 475.234 841.045 474.244 840.148 472.633 843.071 473.17 844.451 473.546 845.092 477.163 848.59 476.834 848.753 478.105 851.214 478.367 851.146 469.979 849.082 468.457 848.792 461.751 861.653 445.545 878.568 443.736 891.298 454.153 882.241 456.123 878.2 459.041 878.043 467.602 866.794 466.307 865.502 470.754 868.801 478.788 858.597 479.181 858.848 484.393 868.33 503.239 853.405 502.119 843.845 499.273 845.965 511.598 836.261 511.229 834.77 517.431 839.509 524.696 829.935 527.589 830.383 533.86 832.646 543.203Z" stroke="#000000" stroke-width="1.33333" stroke-miterlimit="8" fill-rule="evenodd"/><path d="M26.7118 106.224C0.650731 100.265-2.16541 75.7221 1.08761 68.6324 7.15119 65.6618 11.5428 61.9026 13.7266 58.4401 11.4055 57.3381 10.5828 56.9455 8.70049 54.6715 6.02308 57.0269 3.28284 56.8828 1.34068 55.2368 3.33782 53.5567 4.12071 53.5381 5.7387 51.374 5.52945 48.4926 4.30339 45.5091 7.35458 43.3186 6.63678 40.4216 5.93064 39.6336 4.39244 38.5137 7.43189 37.8414 8.91886 37.6356 11.0501 40.6976 14.2814 39.0018 14.9708 40.1024 17.4508 39.3616 13.8732 31.696 11.2482 31.1229 8.16163 25.0881 13.7636 5.0988 29.2967-3.30353 45.9183 1.1745 38.0204 6.59185 35.3503 10.8786 38.7831 18.7927 27.4072 22.0902 28.0244 26.6832 34.565 32.7365 24.9022 37.1646 27.3256 41.8439 44.3479 55.348 29.5053 60.2707 19.1054 61.472 26.3079 71.9298 16.8071 75.4601 17.9676 81.7426 25.5736 86.5162 17.5639 92.9856 20.6211 98.5584 26.7118 106.224Z" stroke="#000000" stroke-width="1.33333" stroke-miterlimit="8" fill-rule="evenodd" transform="matrix(-0.395224 0.918585 0.918585 0.395224 335.023 7.13342)"/><path d="M29.8814 100.875C0.727946 95.2157-2.42235 71.9088 1.21667 65.1761 7.99974 62.3551 12.9124 58.7852 15.3553 55.4971 12.7588 54.4506 11.8385 54.0778 9.73288 51.9183 6.73777 54.1551 3.67238 54.0182 1.49977 52.4551 3.73389 50.8596 4.60967 50.842 6.41965 48.7868 6.18557 46.0505 4.81403 43.2173 8.22726 41.1371 7.42429 38.386 6.63437 37.6377 4.91364 36.5742 8.31375 35.9357 9.97716 35.7403 12.3613 38.6481 15.976 37.0376 16.7472 38.0829 19.5215 37.3794 15.5194 30.0998 12.5829 29.5555 9.13008 23.8247 15.3968 4.84203 32.773-3.13716 51.3669 1.11535 42.5319 6.25989 39.5449 10.3308 43.3851 17.8463 30.6593 20.9777 31.3498 25.3394 38.6665 31.0879 27.8571 35.293 30.568 39.7367 49.6102 52.5607 33.0064 57.2355 21.3724 58.3763 29.4296 68.3075 18.8015 71.6599 20.0996 77.6261 28.6081 82.1592 19.648 88.3029 23.068 93.595 29.8814 100.875Z" stroke="#000000" stroke-width="1.33333" stroke-miterlimit="8" fill-rule="evenodd" transform="matrix(0.328 0.944678 0.944678 -0.328 583.929 601.167)"/></g></svg>