<svg width="407" height="840" xmlns="http://www.w3.org/2000/svg" xmlns:xlink="http://www.w3.org/1999/xlink" overflow="hidden"><g transform="translate(212 -50)"><path d="M228.05 7.24918C380.69-34.5395 528.36 106.753 557.879 322.835 587.399 538.916 487.59 747.962 334.95 789.75 305.964 797.686 276.278 799.117 246.978 793.992L281.5 398.5Z" fill="#EA8B00" fill-rule="evenodd" transform="matrix(-1 0 0 1 353 90)"/><path d="M228.05 7.24918C380.69-34.5395 528.36 106.753 557.879 322.835 587.399 538.916 487.59 747.962 334.95 789.75 305.964 797.686 276.278 799.117 246.978 793.992" stroke="#FFFFFF" stroke-width="4" stroke-miterlimit="8" fill="none" fill-rule="evenodd" transform="matrix(-1 0 0 1 353 90)"/><path d="M208.466 9.17369C351.452-37.7783 492.676 98.4669 523.899 313.486 555.122 528.505 464.519 740.874 321.533 787.826 291.732 797.612 261.031 799.587 230.783 793.664L265 398.5Z" fill="#EA8B00" fill-rule="evenodd" transform="matrix(-1 0 0 1 386 90)"/><path d="M208.466 9.17369C351.452-37.7783 492.676 98.4669 523.899 313.486 555.122 528.505 464.519 740.874 321.533 787.826 291.732 797.612 261.031 799.587 230.783 793.664" stroke="#FFFFFF" stroke-width="4" stroke-miterlimit="8" fill="none" fill-rule="evenodd" transform="matrix(-1 0 0 1 386 90)"/><path d="M171.5 0C266.217-1.52203e-13 343 178.415 343 398.5 343 618.585 266.217 797 171.5 797 168.059 797 164.619 796.759 161.184 796.278L171.5 398.5Z" fill="#EA8B00" fill-rule="evenodd" transform="matrix(-1 0 0 1 353 90)"/><path d="M171.5 0C266.217-1.52203e-13 343 178.415 343 398.5 343 618.585 266.217 797 171.5 797 168.059 797 164.619 796.759 161.184 796.278" stroke="#FFFFFF" stroke-width="4" stroke-miterlimit="8" fill="none" fill-rule="evenodd" transform="matrix(-1 0 0 1 353 90)"/><path d="M0 113 67.2895 0 207 113Z" stroke="#FFFFFF" stroke-width="4" stroke-miterlimit="8" fill="#FFC000" fill-rule="evenodd" transform="matrix(-1 0 0 1 108 337)"/><path d="M0 113 2.70794 0 92 112.726 0 113Z" stroke="#FFFFFF" stroke-width="4" stroke-miterlimit="8" fill="#FFC000" fill-rule="evenodd" transform="matrix(-1 0 0 1 183 473)"/><path d="M284.597 309.11C192.484 307.373 8.79986 219.107 0 58.5544 10.8723 57.5838 16.2329 58.0668 30.449 57.6221 29.9058 35.784 21.7918 13.3178 31.0471 4.3425 40.3024-4.63281 70.5393 2.95612 85.9808 3.76996 101.422 4.5838 85.2342 55.6658 86.6374 77.3367L65.7319 78.8727C64.2564 92.5164 66.8642 153.186 79.5602 169.182 94.3149 170.73 93.0829 169.767 118.677 168.149 150.95 215.206 302.085 320.754 284.597 309.11Z" stroke="#FFFFFF" stroke-width="4" stroke-miterlimit="8" fill="#FFC000" fill-rule="evenodd" transform="matrix(-6.12323e-17 -1 -1 6.12323e-17 192 786)"/></g></svg>