<svg width="719" height="955" xmlns="http://www.w3.org/2000/svg" xmlns:xlink="http://www.w3.org/1999/xlink" overflow="hidden"><g transform="translate(-850 -13)"><path d="M905.289 182.392C925.816 144.166 985.754 8.71431 1213.19 30.3202 1503.03 7.88348 1516.99 207.321 1550.65 269.646 1592.52 533.07 1415.17 651.901 1373.3 676L1011.21 666.028C779.666 449.14 854.383 253.441 905.289 182.392Z" stroke="#FFFFFF" stroke-width="4" stroke-miterlimit="8" fill="#EA8B00" fill-rule="evenodd"/><path d="M1379.01 656.013C1409.94 617.051 1462.35 392.887 1415.05 323.404 1367.75 253.921 983.507 268.41 949.972 327.627 916.436 386.844 974.091 616.397 1025.03 661.002 1075.96 705.607 1182.16 757.168 1197.49 759 1215.32 758.928 1328.63 707.962 1379.01 656.013Z" stroke="#FFFFFF" stroke-width="4" stroke-miterlimit="8" fill="#FFC000" fill-rule="evenodd"/><path d="M1085.28 94.0212C1073.36 113.405 1076.45 211.401 1081.31 255.553 1100.44 397.341 1113.39 431.442 1170.5 517.233 1233.64 563.001 1255.28 563.539 1315.77 577 1285.45 557.616 1250.71 538.232 1243.36 509.157 1233.05 443.467 1235.11 375.624 1230.99 308.858L1236.29 413.853C1300.76 487.081 1329.01 510.772 1382 552.77 1366.1 425.16 1365.22 241.553 1328.13 174.248 1306.05 127.404 1252.19 83.7909 1190.37 53.0999 1130.32 47.7155 1101.18 49.8693 1085.28 94.0212Z" stroke="#FFFFFF" stroke-width="4" stroke-miterlimit="8" fill="#EA8B00" fill-rule="evenodd"/><path d="M1132.15 23.7084C1182.53 4.48757 1277.77 14.9338 1417.06 128.337 1503.99 286.908 1482.76 358.986 1514.86 477.194 1540.55 559.844 1552.89 580.025 1565.74 632.402 1567.22 648.259 1563.27 682.857 1532.64 738.117 1562.77 659.311 1558.82 653.065 1556.35 634.324 1545.98 595.402 1523.75 556.48 1507.45 517.558 1511.9 598.285 1520.79 642.974 1498.56 746.766 1481.77 786.649 1423.48 930.325 1357.79 963 1385.45 888.519 1436.82 795.298 1440.77 739.558 1433.36 661.233 1443.74 640.571 1431.88 556.48 1406.2 582.909 1401.26 584.831 1354.83 605.493 1397.8 555.519 1408.17 557.441 1412.62 511.792 1398.79 530.051 1384.96 549.753 1348.9 570.896 1380.51 531.493 1407.68 492.09 1403.73 448.363 1380.51 343.129 1339.52 286.908 1307.41 206.181 1277.28 154.765 1245.67 106.233 1159.23 47.6091 1142.93 47.1286 1095.78 93.4175 1078 111.677 1088.87 84.2876 1097.58 49.6565 1132.15 23.7084Z" stroke="#FFFFFF" stroke-width="4" stroke-miterlimit="8" fill="#EA8B00" fill-rule="evenodd"/><path d="M1081.12 117.791C1104.1 124.168 1111.77 132.864 1120.82 157.793 1120.82 190.259 1092.96 241.276 1079.03 283.018 1046.29 361.863 1009.38 368.82 990.571 519.553 974.551 630.284 1035.15 659.851 1125 712.608 1044.9 707.39 1037.24 695.215 987.785 685.36L1051.86 730C1013.79 715.313 957.602 704.105 937.635 685.94 880.984 561.101 895.379 539.458 893.057 467.956 893.057 368.24 905.595 295.193 922.311 239.537 950.869 164.171 986.392 115.472 1016.34 110.834 1046.29 105.037 1059.53 108.515 1081.12 117.791Z" stroke="#FFFFFF" stroke-width="4" stroke-miterlimit="8" fill="#EA8B00" fill-rule="evenodd"/><path d="M1062 474C1088.33 484.105 1113.55 492.316 1141 510" stroke="#FFFFFF" stroke-width="4" stroke-linecap="round" stroke-miterlimit="8" fill="none" fill-rule="evenodd"/><path d="M79 35C52.6667 25.1754 27.446 17.193 0 0" stroke="#FFFFFF" stroke-width="4" stroke-linecap="round" stroke-miterlimit="8" fill="none" fill-rule="evenodd" transform="matrix(1 0 0 -1 1284 511)"/><path d="M1157 681.363C1209.91 682.129 1218.52 676.466 1269.59 663 1283.69 663.495 1276.08 679.126 1260.08 685.247 1244.08 691.369 1183.1 697.467 1169 696.972 1156.38 696.36 1158.54 691.157 1157 681.363Z" stroke="#FFFFFF" stroke-width="4" stroke-miterlimit="8" fill="#FFFFFF" fill-rule="evenodd"/><path d="M1130 460C1061.31 450.061 1037.89 438.258 996 419" stroke="#FFFFFF" stroke-width="4" stroke-linecap="round" stroke-miterlimit="8" fill="#EA8B00" fill-rule="evenodd"/><path d="M998.279 566 979 515.724 1035 512 1032.25 564.138 998.279 566Z" stroke="#FFFFFF" stroke-width="4" stroke-miterlimit="8" fill="#FFC000" fill-rule="evenodd"/><path d="M8.10934 50.4639C0.379783 40.1017-3.63959 29.7395 4.39915 19.3773 21.7134 11.2132 95.2987-4.95782 111.995 1.47904 128.69 7.9159 126.526 50.7779 104.574 58L8.10934 50.4639Z" stroke="#FFFFFF" stroke-width="4" stroke-miterlimit="8" fill="#FFC000" fill-rule="evenodd" transform="matrix(-1 0 0 1 1134 515)"/><path d="M0 15.2864C13.5789 7.24014 25.3062 2.90756 45.366 1.36021 66.3516-3.59131 79.9305 6.31173 99.9903 9.7159 100.299 21.1663 93.2008 14.9769 88.8802 19" stroke="#FFFFFF" stroke-width="4" stroke-miterlimit="8" fill="#FFC000" fill-rule="evenodd" transform="matrix(-1 0 0 1 1123 545)"/><path d="M1042 558C1042.95 544.251 1044.12 539.874 1043.99 528" stroke="#FFFFFF" stroke-width="4" stroke-linecap="round" stroke-miterlimit="8" fill="#EA8B00" fill-rule="evenodd"/><path d="M1046.21 583.965 1032.87 574.773 1009 572.219C1011.34 570.943 1025.15 561.75 1048.31 562.005 1071.48 562.261 1147.3 572.475 1148 573.751 1126.24 573.411 1111.49 572.049 1090.43 572.219 1071.25 572.219 1059.19 572.815 1049.72 572.73 1041.87 572.66 1048.43 584.731 1046.21 583.965Z" stroke="#FFFFFF" stroke-width="4" stroke-miterlimit="8" fill="#EA8B00" fill-rule="evenodd"/><path d="M1154 539.426C1131.84 527.824 1099.7 512.11 1074.77 501.774 1034.14 499.77 1042.82 499.348 1012.16 500.508 995.171 496.817 988.153 487.43 976.149 480.891 967.561 475.196 981.505 498.504 987.23 502.407 973.932 505.887 961.743 506.836 949 509.051 949.739 521.391 945.491 517.594 969.5 549.234 979.75 558.357 1008.65 565.318 1010.5 563.789L983.905 545.437 973.932 521.074C1007.36 510.528 1009.76 508.524 1060.92 506.52 1090.93 509.578 1149.57 539.742 1154 539.426Z" stroke="#FFFFFF" stroke-width="4" stroke-miterlimit="8" fill="#EA8B00" fill-rule="evenodd"/><path d="M1282.11 565.464C1274.38 555.102 1270.36 544.74 1278.4 534.377 1295.71 526.213 1369.3 510.042 1385.99 516.479 1402.69 522.916 1400.53 565.778 1378.57 573L1282.11 565.464Z" stroke="#FFFFFF" stroke-width="4" stroke-miterlimit="8" fill="#FFC000" fill-rule="evenodd"/><path d="M1286 560.286C1299.58 552.24 1311.31 547.908 1331.37 546.36 1352.35 541.409 1365.93 551.312 1385.99 554.716 1386.3 566.166 1379.2 559.977 1374.88 564" stroke="#FFFFFF" stroke-width="4" stroke-miterlimit="8" fill="#FFC000" fill-rule="evenodd"/><path d="M0 30C0.948196 16.251 2.12155 11.874 1.98972 0" stroke="#FFFFFF" stroke-width="4" stroke-linecap="round" stroke-miterlimit="8" fill="none" fill-rule="evenodd" transform="matrix(-1 0 0 1 1314 529)"/><path d="M131 36C87.3333 25.8947 45.5117 17.6842 0 0" stroke="#FFFFFF" stroke-width="4" stroke-linecap="round" stroke-miterlimit="8" fill="#FFFFFF" fill-rule="evenodd" transform="matrix(-1 0 0 1 1400 422)"/><path d="M37.2071 22.9636 23.8687 13.3533 0 10.6837C2.34007 9.3491 16.1465-0.261208 39.3131 0.00560531 62.4798 0.272418 138.298 10.9508 139 12.2854 117.237 11.9295 102.495 10.5058 81.4343 10.6837 62.2458 10.6837 50.1946 11.3065 40.7172 11.2176 32.8704 11.1442 39.43 23.7643 37.2071 22.9636Z" stroke="#FFFFFF" stroke-width="4" stroke-miterlimit="8" fill="#EA8B00" fill-rule="evenodd" transform="matrix(-1 0 0 1 1420 560)"/><path d="M205 59.4256C182.838 47.8242 150.703 32.1096 125.77 21.7738 85.1396 19.7699 93.8198 19.348 63.1622 20.5082 46.1712 16.8168 39.1532 7.43022 27.1486 0.891241 18.561-4.804 32.5045 18.5043 38.2297 22.4066 24.9324 25.887 12.7432 26.8362 0 29.051 0.738739 41.3907-3.50901 37.5939 20.5 69.2341 30.7499 78.3569 59.6532 85.3179 61.5 83.7886L34.9054 65.4372 24.9324 41.0743C58.3604 30.5276 60.7613 28.5237 111.919 26.5198 141.93 29.5784 200.568 59.742 205 59.4256Z" stroke="#FFFFFF" stroke-width="4" stroke-miterlimit="8" fill="#EA8B00" fill-rule="evenodd" transform="matrix(-1 0 0 1 1462 489)"/></g></svg>