<svg width="1282" height="170" xmlns="http://www.w3.org/2000/svg" xmlns:xlink="http://www.w3.org/1999/xlink" overflow="hidden"><g transform="translate(1 -120)"><path d="M12 123C116.667 129.003 221.333 133.504 326 136.505L169 155.9C483 169.405 797 169.405 1111 155.9L954 136.505C1058.67 133.504 1163.33 129.003 1268 123L1111 182.364 1268 225.971C1215.67 228.972 1163.33 231.598 1111 233.85L1111 258.871C797 272.376 483 272.376 169 258.871L169 233.85C116.667 231.598 64.3333 228.972 12 225.971L169 182.364Z" fill="#EA8B00" fill-rule="evenodd"/><path d="M326 161.528 326 136.505 169 155.9C483 169.405 797 169.405 1111 155.9L954 136.505 954 161.528C744.667 167.53 535.333 167.53 326 161.528Z" fill="#BC7000" fill-rule="evenodd"/><path d="M12 123C116.667 129.003 221.333 133.504 326 136.505L169 155.9C483 169.405 797 169.405 1111 155.9L954 136.505C1058.67 133.504 1163.33 129.003 1268 123L1111 182.364 1268 225.971C1215.67 228.972 1163.33 231.598 1111 233.85L1111 258.871C797 272.376 483 272.376 169 258.871L169 233.85C116.667 231.598 64.3333 228.972 12 225.971L169 182.364ZM169 233.85 169 155.9M1111 155.9 1111 233.85M326 136.505 326 161.528M954 161.528 954 136.505" stroke="#FFFFFF" stroke-width="4" stroke-miterlimit="8" fill="none" fill-rule="evenodd"/><text fill="#FFFFFF" font-family="HGSSoeiKakupoptai,HGSSoeiKakupoptai_MSFontService,sans-serif" font-weight="400" font-size="59" transform="translate(300.41 245)">メイサーハロウィン</text><text fill="#FFFFFF" font-family="HGSSoeiKakupoptai,HGSSoeiKakupoptai_MSFontService,sans-serif" font-weight="400" font-size="59" transform="translate(828.41 245)">2025</text></g></svg>