<svg width="76" height="86" xmlns="http://www.w3.org/2000/svg" xmlns:xlink="http://www.w3.org/1999/xlink" overflow="hidden"><g transform="translate(-138 -277)"><path d="M142 295.616 154.629 283.197 210.453 283C210.635 294.828 210.818 306.656 211 318.484L186.172 344.803 142 345 142 295.616Z" fill="#7D69C5" fill-rule="evenodd"/><path d="M172 344 162 356 162 344Z" fill="#7D69C5" fill-rule="evenodd"/><rect x="155" y="287" width="51" height="32" fill="#FFFFFF"/><path d="M155 318 207 318 195.459 331 155 331 155 318Z" fill="#FFFFFF" fill-rule="evenodd"/><path d="M181 330 171.741 340 170 330Z" fill="#FFFFFF" fill-rule="evenodd"/><rect x="191" y="297" width="5" height="16" fill="#7D69C5"/><rect x="175" y="297" width="5" height="16" fill="#7D69C5"/><rect x="206" y="315" width="4" height="4" fill="#7D69C5"/></g></svg>