<svg width="75" height="85" xmlns="http://www.w3.org/2000/svg" xmlns:xlink="http://www.w3.org/1999/xlink" overflow="hidden"><g transform="translate(-58 -277)"><path d="M63.8274 306.491C64.4288 302.372 65.8852 300.919 70.2145 300.119 78.7016 299.147 81.9767 298.975 94.4731 299.003 109.244 298.975 111.186 299.347 120.745 300.119 124.874 301.319 126.33 301.372 127.132 306.491 128.006 310.861 127.878 310.631 127.951 318.401 128.079 326.327 128.006 326.652 127.132 331.978 126.13 337.296 125.275 337.149 120.745 338.349 109.582 339.966 110.648 339.783 94.6736 340 80.5735 339.983 79.7039 339.766 70.2145 338.349 65.6848 336.75 65.0302 336.297 63.8274 331.978 62.9502 325.852 63.2758 328.326 63 318.401 63.0753 309.632 63.1507 311.461 63.8274 306.491Z" fill="#FF1111" fill-rule="evenodd"/><path d="M87.9999 309 109 319 87.9999 329Z" fill="#FFFFFF" fill-rule="evenodd"/></g></svg>