<svg width="75" height="86" xmlns="http://www.w3.org/2000/svg" xmlns:xlink="http://www.w3.org/1999/xlink" overflow="hidden"><g transform="translate(-299 -277)"><path d="M352.282 299.469C354.716 296.935 357.461 293.001 359.402 305.043 359.942 308.885 359.592 321.223 355.726 327.123 351.859 333.023 343.818 338.934 336.202 340.443 325.385 342.351 315.986 341.006 310.028 336.173 322.688 334.705 333.738 327.857 340.255 317.442 335.85 311.187 332.997 308.939 346.002 302.243 348.04 300.014 350.869 300.298 352.282 299.469Z" fill="#369ED2" fill-rule="evenodd"/><path d="M334 302.5C334 295.596 339.596 290 346.5 290 353.404 290 359 295.596 359 302.5 359 309.404 353.404 315 346.5 315 339.596 315 334 309.404 334 302.5Z" fill="#369ED2" fill-rule="evenodd"/><path d="M334.18 304.511C341.518 312.793 343.193 323.295 337.92 327.966 332.648 332.637 322.425 329.709 315.087 321.426 325.594 321.315 332.804 314.928 334.18 304.511Z" fill="#369ED2" fill-rule="evenodd"/><path d="M336.788 309.214C337.217 315.296 331.869 320.628 324.842 321.124 317.816 321.62 311.772 317.091 311.343 311.01 319.528 314.235 329.137 313.557 336.788 309.214Z" fill="#369ED2" fill-rule="evenodd"/><path d="M340.405 306.38C338.581 313.055 330.209 316.582 321.707 314.258 313.205 311.933 307.792 304.638 309.617 297.963 319.169 302.739 329.752 305.633 340.405 306.38Z" fill="#369ED2" fill-rule="evenodd"/><path d="M363.706 297.319C363.843 300.403 360.992 303.035 357.337 303.197 353.683 303.36 350.61 300.992 350.473 297.908 354.061 300.838 359.828 300.721 363.352 297.645 363.474 297.539 363.591 297.431 363.706 297.319Z" fill="#369ED2" fill-rule="evenodd"/><path d="M362.8 293.011C363.557 296.096 361.291 299.302 357.738 300.174 354.186 301.046 350.692 299.252 349.936 296.167 354.322 297.961 359.743 296.631 362.8 293.011Z" fill="#369ED2" fill-rule="evenodd"/></g></svg>